<svg width="15" height="12" viewBox="0 0 15 12" fill="none" xmlns="http://www.w3.org/2000/svg">
<path fill-rule="evenodd" clip-rule="evenodd" d="M7.26689 4.7627C6.98353 4.76402 6.71218 4.90164 6.51241 5.14532C6.31262 5.389 6.20072 5.71885 6.20128 6.06246C6.20181 6.4061 6.31477 6.73541 6.51532 6.97815C6.71588 7.22091 6.98764 7.35725 7.271 7.35725C7.55435 7.35725 7.82612 7.22091 8.02667 6.97815C8.22723 6.73541 8.34018 6.4061 8.34072 6.06246C8.34128 5.71885 8.22937 5.389 8.02958 5.14532C7.82982 4.90164 7.55846 4.76402 7.27513 4.7627" fill="#3C3C3C"/>
<path fill-rule="evenodd" clip-rule="evenodd" d="M12.7078 11.9999C13.5935 11.9699 13.821 11.6938 14.5533 9.94775C13.5423 11.1118 13.3147 11.1718 12.7078 11.1718H1.8439C1.23862 11.1718 1.01926 11.1118 0 9.94775C0.732285 11.6938 0.959887 11.9699 1.8439 11.9999H12.7078Z" fill="#3C3C3C"/>
<path d="M11.9774 10.7027H12.1423V10.8407H11.9774V10.7027ZM11.9774 10.3026H12.1423V10.4406H11.9774V10.3026ZM10.9466 10.5966C10.9466 10.3727 11.2286 10.3967 11.2286 10.3967L11.2616 10.4927C11.2336 10.4927 11.0885 10.4807 11.0818 10.6007C11.0835 10.6318 11.095 10.6609 11.114 10.6819C11.1331 10.7029 11.1581 10.7141 11.1838 10.7131H11.1874C11.2121 10.7148 11.2367 10.7097 11.2596 10.6983C11.2824 10.6869 11.3028 10.6693 11.3193 10.647V10.307H10.8608V10.2094H11.8752V10.3078H11.4595V10.4522C11.5005 10.4142 11.5512 10.3951 11.6027 10.3982C11.7198 10.3982 11.8204 10.4883 11.8204 10.5983C11.8204 10.7383 11.6555 10.8643 11.6555 10.8643L11.5499 10.7983C11.5499 10.7983 11.6786 10.7063 11.6786 10.5983C11.6778 10.5702 11.6679 10.5437 11.651 10.5245C11.6341 10.5053 11.6116 10.495 11.5885 10.4958H11.5845C11.5595 10.4991 11.5353 10.5087 11.5135 10.5238C11.4916 10.5389 11.4726 10.5594 11.4576 10.5839V10.9379H11.319V10.7659C11.1656 10.8567 10.9483 10.7767 10.9483 10.5966H10.9466ZM10.8427 9.97663C10.8178 9.96641 10.7914 9.96233 10.7652 9.96463C10.6224 9.96463 10.6382 10.1806 10.7507 10.2106H10.658C10.63 10.1962 10.5544 10.1166 10.5557 10.0426C10.5607 9.90861 10.724 9.83661 10.8427 9.90062V9.97663ZM10.493 10.209H10.8378V10.3074H10.7553V10.9371H10.6121V10.3066H10.493V10.209ZM10.2275 10.4394C10.2459 10.4422 10.2645 10.4398 10.282 10.4324C10.2994 10.4249 10.3152 10.4127 10.3281 10.3967C10.3364 10.3026 10.1335 10.2646 10.1335 10.3766C10.1388 10.4126 10.1814 10.4387 10.2292 10.4387L10.2275 10.4394ZM9.88942 10.209H10.493V10.3074H10.4188C10.5475 10.4634 10.4287 10.6955 10.2163 10.7075C10.2163 10.7075 10.2674 10.7495 10.3021 10.7735L10.4192 10.8535L10.3367 10.9435C10.2041 10.8688 10.0809 10.7719 9.97056 10.6554L10.0596 10.5755L10.1124 10.6155C10.1322 10.6238 10.1537 10.6238 10.1734 10.6155C10.2988 10.5915 10.3186 10.5258 10.3219 10.4934C10.1767 10.5834 9.94748 10.4534 10.0332 10.2934H9.89008L9.88942 10.209ZM9.10435 10.209H9.89271V10.3074H9.74263V10.5075H9.41278C9.39348 10.507 9.37487 10.5159 9.36095 10.5321C9.34704 10.5483 9.33899 10.5705 9.33856 10.5939V10.5978C9.33856 10.7299 9.54307 10.7779 9.58265 10.7519C9.58257 10.7356 9.58512 10.7194 9.5902 10.7043C9.59531 10.6892 9.60279 10.6755 9.61226 10.664C9.62174 10.6524 9.633 10.6432 9.6454 10.6369C9.65781 10.6307 9.67114 10.6275 9.68457 10.6275H9.69149C9.7987 10.6275 9.81685 10.7795 9.72284 10.8095C9.73349 10.8361 9.74677 10.8611 9.76242 10.8839C9.78387 10.9199 9.82344 10.9719 9.82344 10.9719H9.66841C9.66841 10.9719 9.64533 10.9319 9.63279 10.9059C9.62551 10.8866 9.61727 10.8679 9.60805 10.8499C9.60805 10.8499 9.18583 10.8699 9.18912 10.5858C9.18912 10.4958 9.27984 10.4219 9.38375 10.4219H9.59914V10.3166H9.10435V10.209ZM8.86356 10.6431V10.7271L8.51722 10.9271L8.43804 10.8315L8.86356 10.6431ZM8.72173 10.7311C8.53534 10.7311 8.47598 10.575 8.47598 10.5311V10.3066H8.37439V10.209H9.08952V10.3074H9.00868V10.9371H8.86851V10.6947C8.82355 10.7219 8.77351 10.7343 8.72336 10.7307L8.72173 10.7311ZM8.86685 10.307H8.61781V10.5371C8.61781 10.5891 8.64751 10.6391 8.72831 10.6431C8.75433 10.6428 8.78007 10.6361 8.80389 10.6234C8.82771 10.6107 8.84913 10.5922 8.86685 10.569V10.307ZM8.02736 10.209H8.37043V10.307H8.28763V10.9371H8.1448V10.3066H8.02769V10.209H8.02736ZM7.73545 10.3967V10.4826C7.7008 10.4826 7.5448 10.4682 7.5448 10.3382C7.5448 10.2502 7.63715 10.1922 7.7427 10.1934C7.87761 10.1934 7.99174 10.2958 7.99174 10.4174C7.99174 10.539 7.85979 10.6455 7.73282 10.6415C7.75186 10.6684 7.7762 10.6892 7.80357 10.7018C7.83091 10.7145 7.86045 10.7186 7.88948 10.7139C7.99335 10.7079 8.09111 10.6525 8.16163 10.5599V10.7199C7.94226 10.8899 7.58601 10.8059 7.52498 10.5339C7.56821 10.5465 7.61248 10.5532 7.65693 10.5539C7.74599 10.5539 7.85157 10.5119 7.85157 10.4078C7.85254 10.3774 7.84355 10.3477 7.82657 10.3252C7.80959 10.3027 7.78595 10.2893 7.76085 10.2878C7.7548 10.2872 7.74875 10.2872 7.7427 10.2878C7.65198 10.2878 7.64869 10.3958 7.73774 10.3958L7.73545 10.3967ZM7.15127 10.7307C6.96489 10.7307 6.90552 10.5747 6.90552 10.5306V10.3062H6.80327V10.2086H7.52401V10.307H7.44155V10.9367H7.29938V10.6943C7.25416 10.7222 7.20353 10.7347 7.1529 10.7303L7.15127 10.7307ZM7.29443 10.3066H7.04605V10.5366C7.04605 10.5887 7.07901 10.6386 7.15656 10.6427C7.18265 10.643 7.20851 10.6366 7.23241 10.6238C7.25628 10.611 7.27765 10.5922 7.29509 10.5687L7.29443 10.3066ZM5.92616 10.7067H6.0911V10.8447H5.92616V10.7067ZM5.92616 10.3066H6.0911V10.4447H5.92616V10.3066ZM4.89372 10.5966C4.89372 10.3727 5.17574 10.3967 5.17574 10.3967L5.20707 10.4927C5.17904 10.4927 5.04216 10.4807 5.0273 10.6007C5.02893 10.6317 5.04042 10.6608 5.05937 10.6818C5.07834 10.7027 5.10326 10.7139 5.12889 10.7131H5.13288C5.15754 10.7148 5.18218 10.7097 5.20503 10.6983C5.22786 10.6869 5.24831 10.6693 5.2648 10.647V10.307H4.80795V10.2094H5.82061V10.3078H5.40566V10.4522C5.44544 10.4147 5.49477 10.395 5.54519 10.3967C5.66229 10.3967 5.76288 10.4867 5.76288 10.5966C5.76288 10.7367 5.59797 10.8627 5.59797 10.8627L5.49242 10.7967C5.49242 10.7967 5.62105 10.7051 5.62105 10.5966C5.62072 10.5828 5.61811 10.5691 5.61339 10.5564C5.60867 10.5437 5.60195 10.5323 5.59358 10.5228C5.5852 10.5132 5.57537 10.5058 5.56462 10.5009C5.5539 10.4961 5.54246 10.4938 5.531 10.4943H5.52737C5.50233 10.4976 5.47812 10.5071 5.45627 10.5224C5.43441 10.5376 5.41536 10.5581 5.40038 10.5827V10.9367H5.26018V10.7647C5.11306 10.8567 4.89372 10.7767 4.89372 10.5966ZM4.02455 10.2106H4.80961V10.3086H4.73044V10.9367H4.58529V10.5627H4.33625V10.6626C4.33668 10.6682 4.33612 10.6738 4.33466 10.6791C4.33318 10.6844 4.33081 10.6892 4.32772 10.6933C4.3246 10.6974 4.32083 10.7007 4.31661 10.7029C4.3124 10.7051 4.30785 10.7063 4.30326 10.7063C4.30109 10.7067 4.29887 10.7067 4.29667 10.7063C4.21847 10.6647 4.1528 10.5949 4.10865 10.5063C4.10865 10.4582 4.15979 10.4562 4.16638 10.4562H4.58529V10.3007H4.02256L4.02455 10.2106ZM3.67655 10.2106H4.02123V10.3086H3.93879V10.9367H3.79364V10.3066H3.67456L3.67655 10.2106ZM3.45388 10.3086H3.21638V10.5227H3.45388V10.3086ZM2.88982 10.2106H3.67489V10.3086H3.59574V10.9367H3.45258V10.6167H3.21508V10.7007C3.2149 10.7072 3.21367 10.7137 3.21143 10.7197C3.20921 10.7257 3.20601 10.7311 3.20206 10.7356C3.19812 10.7401 3.19348 10.7436 3.1884 10.7459C3.18334 10.7482 3.17793 10.7493 3.17252 10.7491H3.17055C3.08959 10.7061 3.01996 10.6369 2.96933 10.5491C2.96933 10.5174 3.02045 10.5131 3.02374 10.5131H3.07159V10.307H2.88982V10.2106Z" fill="#3C3C3C"/>
<path fill-rule="evenodd" clip-rule="evenodd" d="M7.28934 2.66614C7.36272 2.67434 7.43406 2.70013 7.49917 2.74203C7.5643 2.78392 7.6219 2.84107 7.66867 2.91016L10.6242 6.49597C11.1041 7.078 10.8271 7.53801 10.1954 7.47602H7.28934L9.03263 9.65213H12.7452C13.8815 9.71213 14.7919 8.42607 13.6539 7.10759L8.47682 0.858047C8.04604 0.337619 7.66701 0 7.28934 0C6.91164 0 6.53065 0.338018 6.10184 0.858047L0.925712 7.10838C-0.212297 8.42847 0.698111 9.70853 1.83447 9.65294H5.54373L7.28702 7.47681H4.38988C3.75819 7.53883 3.48112 7.0768 3.96107 6.49676L6.9166 2.91097C6.96342 2.84196 7.02105 2.78487 7.08616 2.743C7.15126 2.70112 7.22255 2.67529 7.29593 2.66694" fill="#3C3C3C"/>
</svg>
