<svg width="12" height="12" viewBox="0 0 12 12" fill="none" xmlns="http://www.w3.org/2000/svg">
<path d="M1.86967 2.79252C2.71846 1.94372 3.83531 1.41549 5.02991 1.29784C6.2245 1.18018 7.42294 1.48037 8.42102 2.14727C9.4191 2.81416 10.1551 3.80649 10.5035 4.95518C10.852 6.10387 10.7913 7.33785 10.332 8.44686C9.87262 9.55586 9.04293 10.4713 7.98429 11.0371C6.92565 11.603 5.70356 11.7843 4.52625 11.5501C3.34893 11.3159 2.28924 10.6807 1.52773 9.75284C0.766215 8.82494 0.35 7.66169 0.35 6.46132" stroke="#3C3C3C" stroke-width="0.7"/>
<path d="M1.84618 0V2.76923H4.61541" stroke="#3C3C3C" stroke-width="0.7"/>
<path d="M4.92309 4.30762V7.38454H7.69232" stroke="#3C3C3C" stroke-width="0.7"/>
</svg>
