<svg width="16" height="12" viewBox="0 0 16 12" fill="none" xmlns="http://www.w3.org/2000/svg">
<path d="M0.91 0C0.41125 0 0 0.41125 0 0.91V9.28C0 9.81125 0.42875 10.24 0.96 10.24H2.27C2.4225 11.1475 3.21125 11.84 4.16 11.84C5.10875 11.84 5.8975 11.1475 6.05 10.24H9.01C9.24625 10.24 9.4575 10.14 9.62 9.99C9.78625 10.1363 9.99875 10.2375 10.24 10.24H10.59C10.7425 11.1475 11.5312 11.84 12.48 11.84C13.5363 11.84 14.4 10.9763 14.4 9.92C14.4 8.86375 13.5363 8 12.48 8C11.5312 8 10.7425 8.6925 10.59 9.6H10.24C10.18 9.6 10.0888 9.55875 10.02 9.49C9.95125 9.42125 9.92 9.33875 9.92 9.28V3.2C9.92 3.08 10.12 2.88 10.24 2.88H12.8C13.0513 2.88 13.405 3.14875 13.65 3.44C13.6525 3.44375 13.6575 3.44625 13.66 3.45L13.71 3.52H12.16C11.65 3.52 11.2 3.9325 11.2 4.48V5.76C11.2 6.02625 11.32 6.26 11.49 6.43C11.66 6.6 11.8938 6.72 12.16 6.72H15.36V9.28C15.36 9.4 15.16 9.6 15.04 9.6H14.4V10.24H15.04C15.5713 10.24 16 9.81125 16 9.28V6.2C16 5.4675 15.49 4.82 15.49 4.82H15.48L14.16 3.06V3.05L14.15 3.04C13.855 2.68375 13.4125 2.24 12.8 2.24H10.24C10.1263 2.24 10.0213 2.26375 9.92 2.3V0.93C9.92 0.43875 9.5325 0 9.02 0H0.91ZM0.91 0.64H9.02C9.1575 0.64 9.28 0.7725 9.28 0.93V9.33C9.28 9.48 9.16125 9.6 9.01 9.6H6.05C5.8975 8.6925 5.10875 8 4.16 8C3.21125 8 2.4225 8.6925 2.27 9.6H0.96C0.84 9.6 0.64 9.39875 0.64 9.28V0.91C0.64 0.76 0.7575 0.64 0.91 0.64ZM12.16 4.16H14.19L14.97 5.2C14.97 5.2 15.26 5.69625 15.32 6.08H12.16C12.1062 6.08 12.02 6.04 11.95 5.97C11.88 5.9 11.84 5.81375 11.84 5.76V4.48C11.84 4.31875 12.03 4.16 12.16 4.16ZM4.16 8.64C4.87125 8.64 5.44 9.20875 5.44 9.92C5.44 10.6313 4.87125 11.2 4.16 11.2C3.44875 11.2 2.88 10.6313 2.88 9.92C2.88 9.20875 3.44875 8.64 4.16 8.64ZM12.48 8.64C13.1913 8.64 13.76 9.20875 13.76 9.92C13.76 10.6313 13.1913 11.2 12.48 11.2C11.7688 11.2 11.2 10.6313 11.2 9.92C11.2 9.20875 11.7688 8.64 12.48 8.64Z" fill="#3C3C3C"/>
</svg>
